<svg width="349" height="135" viewBox="0 0 349 135" fill="none" xmlns="http://www.w3.org/2000/svg">
<g id="Component 1">
<path id="Green Wallet" d="M162.83 34.985C162.207 33.9583 161.345 33.17 160.245 32.62C159.182 32.07 157.917 31.795 156.45 31.795C153.737 31.795 151.592 32.675 150.015 34.435C148.475 36.195 147.705 38.56 147.705 41.53C147.705 44.8667 148.53 47.415 150.18 49.175C151.867 50.8983 154.305 51.76 157.495 51.76C161.272 51.76 163.967 50.055 165.58 46.645H154.745V38.89H174.875V49.34C174.032 51.3933 172.785 53.3183 171.135 55.115C169.522 56.9117 167.468 58.3967 164.975 59.57C162.482 60.7067 159.64 61.275 156.45 61.275C152.563 61.275 149.117 60.45 146.11 58.8C143.14 57.1133 140.83 54.785 139.18 51.815C137.567 48.8083 136.76 45.38 136.76 41.53C136.76 37.7167 137.567 34.325 139.18 31.355C140.83 28.3483 143.14 26.02 146.11 24.37C149.08 22.6833 152.508 21.84 156.395 21.84C161.272 21.84 165.305 23.0133 168.495 25.36C171.685 27.7067 173.665 30.915 174.435 34.985H162.83ZM190.486 35.59C191.696 33.83 193.163 32.4367 194.886 31.41C196.609 30.3833 198.461 29.87 200.441 29.87V41.365H197.416C195.069 41.365 193.328 41.8233 192.191 42.74C191.054 43.6567 190.486 45.2517 190.486 47.525V61H179.706V30.145H190.486V35.59ZM233.786 45.215C233.786 46.0583 233.731 46.9017 233.621 47.745H213.216C213.326 49.4317 213.784 50.6967 214.591 51.54C215.434 52.3467 216.497 52.75 217.781 52.75C219.577 52.75 220.861 51.9433 221.631 50.33H233.126C232.649 52.4567 231.714 54.3633 230.321 56.05C228.964 57.7 227.241 59.0017 225.151 59.955C223.061 60.9083 220.751 61.385 218.221 61.385C215.177 61.385 212.464 60.7433 210.081 59.46C207.734 58.1767 205.882 56.3433 204.526 53.96C203.206 51.5767 202.546 48.7717 202.546 45.545C202.546 42.3183 203.206 39.5317 204.526 37.185C205.846 34.8017 207.679 32.9683 210.026 31.685C212.409 30.4017 215.141 29.76 218.221 29.76C221.264 29.76 223.959 30.3833 226.306 31.63C228.652 32.8767 230.486 34.6733 231.806 37.02C233.126 39.33 233.786 42.0617 233.786 45.215ZM222.786 42.52C222.786 41.2 222.346 40.1733 221.466 39.44C220.586 38.67 219.486 38.285 218.166 38.285C216.846 38.285 215.764 38.6517 214.921 39.385C214.077 40.0817 213.527 41.1267 213.271 42.52H222.786ZM267.677 45.215C267.677 46.0583 267.622 46.9017 267.512 47.745H247.107C247.217 49.4317 247.676 50.6967 248.482 51.54C249.326 52.3467 250.389 52.75 251.672 52.75C253.469 52.75 254.752 51.9433 255.522 50.33H267.017C266.541 52.4567 265.606 54.3633 264.212 56.05C262.856 57.7 261.132 59.0017 259.042 59.955C256.952 60.9083 254.642 61.385 252.112 61.385C249.069 61.385 246.356 60.7433 243.972 59.46C241.626 58.1767 239.774 56.3433 238.417 53.96C237.097 51.5767 236.437 48.7717 236.437 45.545C236.437 42.3183 237.097 39.5317 238.417 37.185C239.737 34.8017 241.571 32.9683 243.917 31.685C246.301 30.4017 249.032 29.76 252.112 29.76C255.156 29.76 257.851 30.3833 260.197 31.63C262.544 32.8767 264.377 34.6733 265.697 37.02C267.017 39.33 267.677 42.0617 267.677 45.215ZM256.677 42.52C256.677 41.2 256.237 40.1733 255.357 39.44C254.477 38.67 253.377 38.285 252.057 38.285C250.737 38.285 249.656 38.6517 248.812 39.385C247.969 40.0817 247.419 41.1267 247.162 42.52H256.677ZM292.274 29.87C295.83 29.87 298.654 31.0617 300.744 33.445C302.834 35.7917 303.879 38.9817 303.879 43.015V61H293.099V44.445C293.099 42.685 292.64 41.31 291.724 40.32C290.807 39.2933 289.579 38.78 288.039 38.78C286.425 38.78 285.16 39.2933 284.244 40.32C283.327 41.31 282.869 42.685 282.869 44.445V61H272.089V30.145H282.869V34.545C283.822 33.1517 285.105 32.0333 286.719 31.19C288.332 30.31 290.184 29.87 292.274 29.87ZM192.695 72.225L183.18 111H169.925L164.59 87.24L159.145 111H145.89L136.485 72.225H148.145L152.655 98.735L158.76 72.225H170.585L176.525 98.515L181.035 72.225H192.695ZM195.509 95.545C195.509 92.355 196.078 89.5683 197.214 87.185C198.388 84.8017 199.964 82.9683 201.944 81.685C203.961 80.4017 206.198 79.76 208.654 79.76C210.781 79.76 212.614 80.1817 214.154 81.025C215.694 81.8683 216.886 83.005 217.729 84.435V80.145H228.509V111H217.729V106.71C216.886 108.14 215.676 109.277 214.099 110.12C212.559 110.963 210.744 111.385 208.654 111.385C206.198 111.385 203.961 110.743 201.944 109.46C199.964 108.177 198.388 106.343 197.214 103.96C196.078 101.54 195.509 98.735 195.509 95.545ZM217.729 95.545C217.729 93.565 217.179 92.0067 216.079 90.87C215.016 89.7333 213.696 89.165 212.119 89.165C210.506 89.165 209.168 89.7333 208.104 90.87C207.041 91.97 206.509 93.5283 206.509 95.545C206.509 97.525 207.041 99.1017 208.104 100.275C209.168 101.412 210.506 101.98 212.119 101.98C213.696 101.98 215.016 101.412 216.079 100.275C217.179 99.1383 217.729 97.5617 217.729 95.545ZM245.432 70.3V111H234.652V70.3H245.432ZM262.351 70.3V111H251.571V70.3H262.351ZM297.97 95.215C297.97 96.0583 297.915 96.9017 297.805 97.745H277.4C277.51 99.4317 277.968 100.697 278.775 101.54C279.618 102.347 280.682 102.75 281.965 102.75C283.762 102.75 285.045 101.943 285.815 100.33H297.31C296.833 102.457 295.898 104.363 294.505 106.05C293.148 107.7 291.425 109.002 289.335 109.955C287.245 110.908 284.935 111.385 282.405 111.385C279.362 111.385 276.648 110.743 274.265 109.46C271.918 108.177 270.067 106.343 268.71 103.96C267.39 101.577 266.73 98.7717 266.73 95.545C266.73 92.3183 267.39 89.5317 268.71 87.185C270.03 84.8017 271.863 82.9683 274.21 81.685C276.593 80.4017 279.325 79.76 282.405 79.76C285.448 79.76 288.143 80.3833 290.49 81.63C292.837 82.8767 294.67 84.6733 295.99 87.02C297.31 89.33 297.97 92.0617 297.97 95.215ZM286.97 92.52C286.97 91.2 286.53 90.1733 285.65 89.44C284.77 88.67 283.67 88.285 282.35 88.285C281.03 88.285 279.948 88.6517 279.105 89.385C278.262 90.0817 277.712 91.1267 277.455 92.52H286.97ZM320.587 101.815V111H315.912C308.028 111 304.087 107.095 304.087 99.285V89.11H300.292V80.145H304.087V72.665H314.922V80.145H320.532V89.11H314.922V99.45C314.922 100.293 315.105 100.898 315.472 101.265C315.875 101.632 316.535 101.815 317.452 101.815H320.587Z" fill="black"/>
<g id="ri:money-pound-circle-fill">
<path id="Vector" d="M67.5 123.75C36.4331 123.75 11.25 98.5669 11.25 67.5C11.25 36.4331 36.4331 11.25 67.5 11.25C98.5669 11.25 123.75 36.4331 123.75 67.5C123.75 98.5669 98.5669 123.75 67.5 123.75ZM50.625 73.125V84.375H45V95.625H90V84.375H61.875V73.125H78.75V61.875H61.875V56.25C61.8736 54.4281 62.462 52.6547 63.5522 51.195C64.6423 49.7352 66.1757 48.6676 67.923 48.1516C69.6703 47.6357 71.5377 47.6991 73.2459 48.3325C74.9541 48.9659 76.4115 50.1352 77.4 51.6656L88.5712 48.8756C86.8566 44.6417 83.7234 41.1355 79.7082 38.9574C75.6929 36.7793 71.0454 36.0648 66.5613 36.9362C62.0772 37.8076 58.0355 40.2108 55.1283 43.7342C52.2211 47.2576 50.6291 51.682 50.625 56.25V61.875H45V73.125H50.625Z" fill="black"/>
</g>
</g>
</svg>
